<svg width="157" height="94" fill="none" xmlns="http://www.w3.org/2000/svg"><path d="M1 88c5.762-.845 19.564-3.476 28.679-7.241 9.114-3.766 26.583-14.845 34.178-19.914 7.595-3.138 23.886-9.704 28.286-10.862 4.4-1.159 15.714-2.173 20.821-2.535l23.572 1.087L155 46" stroke="#F2F2F2" stroke-width="4"/><path d="M1 4.002c5.747-.377 19.906 54.64 28.997 52.96 9.092-1.679 26.516-6.62 34.092-8.88 7.576-1.4 24.217-16.91 28.606-17.426 4.389-.517 21.944.162 27.038 0l18.025 3.602L155 41.462" stroke="#7AC3A2" stroke-width="4"/><path d="M1 87.999c5.747.298 19.906-43.3 28.997-41.97 9.092 1.332 26.516 5.247 34.092 7.038 7.576 1.11 24.217 13.4 28.606 13.81 4.389.409 21.944-.129 27.038 0l18.025-2.855L155 58.313" stroke="#FFDC7C" stroke-width="4"/><path d="M1 47.742c5.762-.37 35.671.234 44.786-1.417 9.114-1.651 25.404 3.64 33 1.417 7.595-1.376 14.457 3.34 18.857 2.833 4.4-.508 12.571 1.575 17.678 1.416l18.072-5.666L155 47.742" stroke="#2A7AB7" stroke-width="4"/><path stroke="#fff" stroke-width="4" d="M3 2h152v90H3z"/></svg>